<svg width="6" height="17" viewBox="0 0 6 17" fill="none" xmlns="http://www.w3.org/2000/svg">
<g opacity="0.3">
<path fill-rule="evenodd" clip-rule="evenodd" d="M3.25001 6.99997C4.21649 6.99997 4.99997 7.78346 4.99997 8.74996C4.99997 9.71647 4.21649 10.5 3.25001 10.5C2.28353 10.5 1.49997 9.71647 1.49997 8.74996C1.49997 7.78346 2.28353 6.99997 3.25001 6.99997Z" fill="black"/>
<path fill-rule="evenodd" clip-rule="evenodd" d="M3.25 0.999978C4.21648 0.999978 4.99996 1.78347 4.99996 2.74997C4.99996 3.71647 4.21648 4.49997 3.25 4.49997C2.28353 4.49997 1.49997 3.71647 1.49997 2.74997C1.49997 1.78347 2.28353 0.999978 3.25 0.999978Z" fill="black"/>
<path fill-rule="evenodd" clip-rule="evenodd" d="M3.25 13C4.21648 13 4.99996 13.7835 4.99996 14.75C4.99996 15.7165 4.21648 16.5 3.25 16.5C2.28353 16.5 1.49997 15.7165 1.49997 14.75C1.49997 13.7835 2.28353 13 3.25 13Z" fill="black"/>
</g>
</svg>
