<svg width="12" height="20" viewBox="0 0 12 20" fill="none" xmlns="http://www.w3.org/2000/svg">
<path opacity="0.4" fill-rule="evenodd" clip-rule="evenodd" d="M5.34058e-05 3.75005C5.34058e-05 1.679 2.01478 0 4.49998 0C6.98528 0 8.99992 1.679 8.99992 3.75005V15.0001C8.99992 16.3808 7.65677 17.4999 5.99994 17.4999C4.34311 17.4999 2.99996 16.3808 2.99996 15.0001V5.00007H4.49998V15.0001C4.49998 15.6904 5.17148 16.2501 5.99994 16.2501C6.82839 16.2501 7.49998 15.6904 7.49998 15.0001V3.75005C7.49998 2.36931 6.15682 1.25004 4.49998 1.25004C2.84307 1.25004 1.49992 2.36931 1.49992 3.75005V15.0001C1.49992 17.0712 3.51466 18.7502 5.99994 18.7502C8.48522 18.7502 10.5 17.0712 10.5 15.0001V2.50006H11.9999V15.625C11.6302 18.0907 9.05917 20.0001 5.99994 20.0001C2.94087 20.0001 0.369805 18.0907 -0.00012207 15.625L5.34058e-05 3.75005Z" fill="black"/>
</svg>
